<svg width="279" height="321" viewBox="0 0 279 321" fill="none" xmlns="http://www.w3.org/2000/svg">
<path d="M77.3999 53.4735C75.3809 44.5895 64.4785 47.0124 59.2291 51.4544C52.3646 57.1079 51.1533 67.6072 52.3647 75.6836C54.3836 84.1638 59.6329 92.2402 67.7088 95.8745C75.7848 99.9127 85.4758 98.7012 93.5517 94.2592C101.628 89.8172 107.281 81.7407 107.685 72.4528C108.088 63.165 103.243 53.4733 95.5707 48.2237C87.091 42.974 76.5923 44.1856 68.9202 50.6467C61.2481 56.704 58.0178 68.8185 64.0747 77.2987C70.1316 84.9713 83.4568 82.9521 87.4948 74.4719C89.9176 69.6261 88.3025 63.5689 84.6683 59.9345C81.4379 56.3002 74.9772 53.8772 70.5355 57.1077C68.9203 58.3192 69.7278 60.7421 71.7468 61.1459C74.9772 61.5498 78.2076 61.9537 80.6304 64.7804C82.6493 67.2033 83.4568 70.4338 81.4379 73.2605C79.8227 75.2796 76.9962 76.0873 74.5734 76.0873C70.5355 76.0873 68.1126 73.2605 67.305 69.2223C65.6898 62.3574 70.5354 55.8963 76.1886 53.0696C82.6493 49.4352 89.9176 51.0505 95.1669 55.8963C105.262 65.588 103.243 81.3369 91.5328 88.6056C80.2265 95.8743 65.2861 92.6439 59.6329 80.1255C56.8064 73.6644 56.4025 66.3956 59.2291 59.9345C60.8443 57.1078 62.8633 54.281 66.0937 53.0696C69.3241 51.4543 73.7658 51.0504 75.7848 54.281C76.5923 55.0886 77.8037 54.685 77.3999 53.4735Z" fill="white"/>
<path d="M74.574 44.9941C77.8043 35.7063 81.0347 26.0147 78.2081 16.323C76.1891 9.45811 70.5359 2.59309 63.2676 0.57399C47.9234 -3.4642 39.4437 14.7077 43.8855 26.8222C47.1159 36.5139 54.788 42.975 62.4601 49.0323C65.2867 51.0514 68.1132 46.6093 66.0942 44.1864C54.3842 29.2451 32.5792 22.784 14.8122 28.0336C6.33245 30.4566 -2.55105 37.3215 0.679316 47.0132C3.10209 55.0896 12.3895 59.5316 20.0616 61.1469C32.5792 63.5698 46.3083 61.1469 58.4222 57.1087C61.6525 55.8972 61.2487 51.0514 57.6145 51.0514C47.1158 50.6476 36.6171 53.0706 27.3298 57.5126C18.8501 61.5508 9.56279 68.0118 6.33243 77.2996C3.50586 84.9722 6.33243 95.0677 14.4083 98.2983C22.888 101.933 33.3867 98.2983 40.655 94.2601C49.9423 89.4143 57.6146 81.7416 62.4601 72.4538C64.0753 69.627 61.2487 65.9928 58.0183 68.0118C42.2703 78.1073 28.1375 95.8754 26.1185 115.259C25.3109 123.335 27.7336 133.027 36.6171 135.45C46.3082 138.276 56.8069 130.604 63.2676 123.739C70.9397 115.662 75.3816 105.567 76.5929 94.2601C76.9967 91.8372 73.3625 90.2219 71.3435 91.4333C58.4221 101.125 60.8449 123.739 76.1891 129.392C92.7447 135.854 110.915 121.316 109.3 103.952C108.493 93.8564 102.032 84.1646 92.7448 80.1264C89.1106 78.5111 85.8802 82.1455 88.303 85.376C99.2055 98.7021 118.991 97.8944 133.528 93.4524C141.604 91.0295 149.276 86.9914 149.68 77.7036C149.68 70.4349 144.834 62.7623 138.374 59.5317C127.471 53.8783 114.55 58.3201 104.051 62.3583C100.417 63.9736 100.821 68.8195 104.859 68.8195C118.991 70.031 134.336 59.1277 133.528 44.1864C132.72 29.6489 118.184 17.5345 104.051 25.2071C96.7827 29.2453 92.7447 37.3217 94.3599 45.3981C94.7637 48.2248 98.8017 48.6284 100.013 46.2055C106.878 32.4757 106.878 16.7269 100.417 2.99705C100.013 1.7856 98.8017 0.977859 97.9941 1.38168C75.7853 2.99695 61.6525 29.6491 72.555 48.6286C74.574 52.2629 79.8233 49.0323 77.8043 45.8018C69.3246 30.8605 80.6309 9.05424 97.9941 7.43897C96.9173 7.16975 95.975 6.76598 95.1674 6.22756C100.417 17.5345 100.417 31.2642 94.7637 42.975C96.6481 43.2442 98.5325 43.5135 100.417 43.7827C99.2055 36.9178 104.859 30.8606 111.319 29.2453C117.376 28.0338 123.433 32.4757 125.856 38.1291C131.509 51.859 117.78 63.5697 104.859 62.3583C105.128 64.512 105.397 66.6658 105.666 68.8195C114.55 65.589 127.471 59.9354 136.758 66.3965C142.008 70.0308 146.046 79.3189 139.181 83.7609C135.547 86.1838 131.105 87.3952 126.664 88.2028C122.626 89.0104 118.588 89.549 114.55 89.8182C106.474 89.4144 98.3978 87.3951 93.1485 80.5301C91.8025 82.4146 90.4565 84.1647 89.1105 85.78C96.7826 89.4144 102.436 97.0868 102.84 105.567C102.84 114.047 97.5902 120.912 89.5143 123.335C82.6498 125.354 74.5739 123.335 71.3435 116.066C68.517 110.009 68.9207 101.529 74.9777 97.4906C73.3625 96.4137 71.6128 95.3369 69.7284 94.2601C68.9208 104.759 64.0753 114.047 56.4032 121.316C50.75 126.566 36.6171 135.45 33.3868 122.931C30.964 114.047 35.8096 103.548 39.8475 95.8755C45.0969 86.9914 52.769 78.9149 61.6525 73.2614C60.0373 71.9154 58.5567 70.5693 57.2107 69.2233C52.7689 77.2996 45.9044 84.1645 37.4247 88.6065C30.964 92.2409 16.0235 97.8946 12.3894 87.7991C8.7552 78.1074 18.4464 69.6271 26.1185 65.1851C35.4058 59.5316 46.3082 57.1087 57.6145 57.1087C57.3453 55.2242 57.0761 53.2051 56.8069 51.0514C45.9044 55.0896 32.1754 57.5125 20.8691 55.0896C14.4084 53.4743 0.679291 46.6095 8.35141 38.5331C11.5818 34.8987 17.6387 33.6872 22.4842 32.8795C26.926 32.4757 31.7716 32.4759 36.2134 33.2835C46.3083 35.3026 55.1917 40.956 61.6525 48.6286C62.9985 47.0133 64.2098 45.398 65.2866 43.7827C58.8259 38.9369 51.1537 32.8795 48.731 24.8031C46.712 18.7459 48.3272 10.6696 53.9804 7.03524C60.8449 2.59323 68.9208 8.24655 72.1512 14.7077C76.5929 23.5917 73.3625 34.8987 70.9397 43.7827C70.5359 46.2056 73.7664 47.0132 74.574 44.9941Z" fill="white"/>
<path d="M85.8803 117.277C91.9373 160.89 95.5714 204.502 95.9752 248.519C95.9752 260.633 95.1676 273.152 95.9752 285.266C95.9752 288.901 100.821 288.497 101.225 285.266C102.436 274.363 102.032 263.056 101.628 252.153C101.628 241.115 101.359 230.078 100.821 219.04C99.744 196.964 97.8596 174.889 95.1676 152.813C93.5524 140.43 91.6681 128.315 89.5145 116.47C88.7069 114.047 85.4766 114.855 85.8803 117.277Z" fill="white"/>
<path d="M199.591 109.298C193.035 112.964 185.137 119.569 187.429 128.162C189.09 134.247 195.503 136.73 201.084 136.171C208.271 135.012 212.791 129.973 212.903 122.921C213.35 115.135 208.047 108.276 201.603 104.89C200.821 106.604 200.038 108.319 199.255 110.033C208.606 113.858 214.276 100.465 217.294 93.8529C220.919 83.9663 221.973 72.9058 215.17 64.4732C209.668 57.0788 199.813 54.3561 191.684 59.5234C183.891 63.956 179.531 73.5073 178.948 82.5632C178.429 93.4239 182.422 104.125 189.928 111.99C191.997 114.266 195.143 111.263 194.512 108.756C190.463 91.371 171.937 78.4751 154.121 80.5525C144.594 81.9745 136.162 88.7789 138.15 99.0085C139.74 108.168 147.581 115.299 155.998 118.253C165.349 122.078 175.978 121.159 184.642 115.792C186.415 114.825 186.119 111.583 184.283 110.745C174.029 106.952 163.169 106.434 152.405 108.623C143.078 110.58 130.772 115.172 124.743 123.518C118.379 132.598 124.208 144.137 133.224 148.696C143.174 154.126 156.646 151.841 167.178 148.215C172.361 146.586 177.144 143.886 181.56 141.019C185.441 138.352 189.122 135.149 189.498 130.437C189.873 125.726 185.6 122.444 181.288 123.139C175.906 124.233 172.121 129.608 169.007 133.513C164.854 138.72 160.87 143.56 157.452 149.102C154.537 153.542 153.092 158.653 155.089 164.004C158.283 172.564 168.872 175.622 177.36 175.502C188.923 175.453 201.029 170.326 206.994 160.175C212.624 150.76 211.641 138.326 204.135 130.46C202.067 128.185 198.721 130.652 198.817 133.36C198.801 143.118 202.929 152.549 209.669 159.177C216.409 165.805 226.695 170.5 236.022 168.543C246.786 166.354 250.012 155.397 247.321 145.735C243.695 135.202 234.687 125.763 225.44 119.766C221.735 117.187 217.127 114.64 212.479 116.07C208.199 117.667 205.987 121.54 205.947 125.517C206.107 130.029 208.24 134.11 211.745 136.154C216.92 139.404 223.069 139.547 228.65 138.988C238.744 138.268 248.973 136.279 254.036 126.161C258.092 118.247 257.006 107.985 251.336 100.958C244.165 92.3578 231.604 89.7312 221.239 92.99C209.604 96.1132 200.932 106.359 197.171 117.516C195.662 120.822 201.004 123.705 202.314 119.863C208.151 106.103 222.341 93.4931 238.272 99.4335C245.052 102.084 249.588 107.706 250.211 115.093C250.634 121.945 246.881 128.222 240.093 130.45C236.716 132.016 233.106 132.144 229.329 132.639C224.817 132.799 219.068 133.726 215.362 131.146C213.326 129.773 211.761 126.395 212.935 123.824C214.444 120.518 219.419 123.232 221.455 124.606C228.299 129.061 235.406 135.857 239.104 143.315C242.402 149.704 244.023 159.766 235.431 162.058C227.741 164.319 219.627 159.727 214.389 154.673C208.583 148.915 205.221 140.722 205.468 132.401C203.461 133.556 201.633 134.645 199.982 135.668C204.854 140.555 204.974 149.043 202.123 155.288C199.105 161.901 192.213 166.301 185.226 167.995C178.606 169.856 170.117 169.976 164.544 165.656C156.933 159.963 162.962 151.617 167.282 146.043C169.917 142.215 172.797 138.499 175.922 134.894C176.625 134.327 183.588 126.852 182.814 130.494C182.375 133.401 178.126 135.9 175.819 137.066C172.049 139.489 168.081 141.377 163.912 142.729C156.055 145.357 146.528 146.779 138.678 144.528C130.996 141.909 124.16 132.574 131.323 125.634C137.248 119.46 146.511 115.698 155.136 114.308C163.928 112.551 172.983 113.133 181.767 116.255C181.703 114.45 181.461 112.712 181.041 111.04C173.614 115.641 163.856 115.625 155.775 111.936C148.963 108.383 137.887 96.6687 147.222 89.8323C154.249 84.162 165.54 86.6528 173.087 90.5414C180.833 94.9651 186.502 101.992 189.162 110.753C190.567 109.618 192.095 108.54 193.745 107.518C187.006 100.89 183.947 91.0598 184.697 81.6366C185.512 74.0181 190.407 64.2671 199.031 62.877C208.725 61.0876 214.723 72.2594 214.308 80.9479C213.765 86.0269 211.784 91.3376 209.437 96.4805C208.431 98.6847 204.909 106.399 201.603 104.89C198.297 103.381 195.582 108.356 199.255 110.033C203.496 112.413 206.898 116.629 207.425 121.309C207.952 125.988 205.205 130.061 200.893 130.756C197.116 131.252 192.74 130.142 191.877 126.197C191.118 120.08 197.642 115.511 202.058 112.644C204.166 110.943 201.899 108.132 199.591 109.298Z" fill="white"/>
<path d="M147.486 153.431C136.459 173.7 125.798 194.136 114.571 213.87C103.544 234.138 91.5818 253.536 79.0849 273.134C77.0407 276.64 82.0796 281.16 84.2915 277.287C96.7325 257.811 108.495 237.878 119.578 217.487C130.606 197.218 141.434 176.415 150.425 154.773C151.263 152.936 148.325 151.595 147.486 153.431Z" fill="white"/>
</svg>
